<?xml version="1.0" encoding="UTF-8" standalone="no"?>
<!DOCTYPE svg PUBLIC "-//W3C//DTD SVG 1.0//EN" "http://www.w3.org/TR/2001/PR-SVG-20010719/DTD/svg10.dtd">
<svg width="22cm" height="14cm" viewBox="199 41 439 266" xmlns="http://www.w3.org/2000/svg" xmlns:xlink="http://www.w3.org/1999/xlink">
  <g>
    <rect style="fill: #ffffff" x="301.028" y="42" width="104.972" height="38"/>
    <rect style="fill: none; fill-opacity:0; stroke-width: 2; stroke: #000000" x="301.028" y="42" width="104.972" height="38"/>
    <text font-size="12.7998" style="fill: #000000;text-anchor:middle;font-family:sans-serif;font-style:normal;font-weight:normal" x="353.514" y="64.9">
      <tspan x="353.514" y="64.9">President</tspan>
    </text>
  </g>
  <g>
    <rect style="fill: #ffffff" x="200" y="137" width="109" height="38"/>
    <rect style="fill: none; fill-opacity:0; stroke-width: 2; stroke: #000000" x="200" y="137" width="109" height="38"/>
    <text font-size="12.7998" style="fill: #000000;text-anchor:middle;font-family:sans-serif;font-style:normal;font-weight:normal" x="254.5" y="159.9">
      <tspan x="254.5" y="159.9">Accountant</tspan>
    </text>
  </g>
  <g>
    <rect style="fill: #ffffff" x="404.991" y="138" width="102.019" height="38"/>
    <rect style="fill: none; fill-opacity:0; stroke-width: 2; stroke: #000000" x="404.991" y="138" width="102.019" height="38"/>
    <text font-size="12.7998" style="fill: #000000;text-anchor:middle;font-family:sans-serif;font-style:normal;font-weight:normal" x="456" y="160.9">
      <tspan x="456" y="160.9">Travel Agent</tspan>
    </text>
  </g>
  <g>
    <rect style="fill: #ffffff" x="491.772" y="200" width="98.4562" height="38"/>
    <rect style="fill: none; fill-opacity:0; stroke-width: 2; stroke: #000000" x="491.772" y="200" width="98.4562" height="38"/>
    <text font-size="12.7998" style="fill: #000000;text-anchor:middle;font-family:sans-serif;font-style:normal;font-weight:normal" x="541" y="222.9">
      <tspan x="541" y="222.9">Comitive TA</tspan>
    </text>
  </g>
  <g>
    <rect style="fill: #ffffff" x="491.347" y="267" width="145.306" height="38"/>
    <rect style="fill: none; fill-opacity:0; stroke-width: 2; stroke: #000000" x="491.347" y="267" width="145.306" height="38"/>
    <text font-size="12.7998" style="fill: #000000;text-anchor:middle;font-family:sans-serif;font-style:normal;font-weight:normal" x="564" y="289.9">
      <tspan x="564" y="289.9">Single customer TA</tspan>
    </text>
  </g>
  <g>
    <polyline style="fill: none; fill-opacity:0; stroke-width: 2; stroke: #000000" points="353.514,80 353.514,108.5 254.5,108.5 254.5,132.528 "/>
    <polyline style="fill: none; fill-opacity:0; stroke-width: 2; stroke: #000000" points="249.5,124.764 254.5,134.764 259.5,124.764 "/>
  </g>
  <g>
    <polyline style="fill: none; fill-opacity:0; stroke-width: 2; stroke: #000000" points="353.514,80 353.514,109 456,109 456,133.528 "/>
    <polyline style="fill: none; fill-opacity:0; stroke-width: 2; stroke: #000000" points="451,125.764 456,135.764 461,125.764 "/>
  </g>
  <g>
    <polyline style="fill: none; fill-opacity:0; stroke-width: 2; stroke: #000000" points="456,176 456,286 486.875,286 "/>
    <polyline style="fill: none; fill-opacity:0; stroke-width: 2; stroke: #000000" points="479.111,291 489.111,286 479.111,281 "/>
  </g>
  <g>
    <polyline style="fill: none; fill-opacity:0; stroke-width: 2; stroke: #000000" points="456,176 456,219 487.3,219 "/>
    <polyline style="fill: none; fill-opacity:0; stroke-width: 2; stroke: #000000" points="479.536,224 489.536,219 479.536,214 "/>
  </g>
</svg>
