<?xml version="1.0" encoding="utf-8" ?>
<!DOCTYPE svg PUBLIC "-//W3C//DTD SVG 1.1//EN" "http://www.w3.org/Graphics/SVG/1.1/DTD/svg11.dtd">
<svg height="913" version="1.1" width="1040" xmlns="http://www.w3.org/2000/svg">
<rect fill="#ffffff" height="96" stroke="#ffffff" stroke-width="1" width="112" x="158" y="158"/>
<rect fill="none" height="96" stroke="#000000" stroke-width="1" width="112" x="158" y="158"/>
<text font-family="Dialog" font-size="12" x="196" y="171">
Client</text>
<rect fill="#000000" height="1" stroke="#000000" stroke-width="1" width="112" x="158" y="181"/>
<text font-family="Dialog" font-size="12" x="162" y="195">
dynamic:{1,2,3}</text>
<text font-family="Dialog" font-size="12" x="162" y="211">
quiet : Boolean</text>
<rect fill="#000000" height="1" stroke="#000000" stroke-width="1" width="112" x="158" y="226"/>
<rect fill="#ffffff" height="88" stroke="#ffffff" stroke-width="1" width="375" x="358" y="230"/>
<rect fill="none" height="88" stroke="#000000" stroke-width="1" width="375" x="358" y="230"/>
<text font-family="Dialog" font-size="12" x="520" y="243">
Itinerary</text>
<rect fill="#000000" height="1" stroke="#000000" stroke-width="1" width="375" x="358" y="253"/>
<text font-family="Dialog" font-size="12" x="362" y="267">
withKids : Boolean</text>
<text font-family="Dialog" font-size="12" x="362" y="283">
needsFreeTime : Boolean</text>
<rect fill="#000000" height="1" stroke="#000000" stroke-width="1" width="375" x="358" y="293"/>
<text font-family="Dialog" font-size="12" x="362" y="307">
selectLocation(preference : Preference,const : Constraint)</text>
<rect fill="#ffffff" height="69" stroke="#ffffff" stroke-width="1" width="113" x="502" y="102"/>
<rect fill="none" height="69" stroke="#000000" stroke-width="1" width="113" x="502" y="102"/>
<text font-family="Dialog" font-size="12" x="547" y="115">
Day</text>
<rect fill="#000000" height="1" stroke="#000000" stroke-width="1" width="113" x="502" y="125"/>
<text font-family="Dialog" font-size="12" x="506" y="139">
Date : Integer</text>
<rect fill="#000000" height="1" stroke="#000000" stroke-width="1" width="113" x="502" y="149"/>
<rect fill="#ffffff" height="168" stroke="#ffffff" stroke-width="1" width="244" x="454" y="462"/>
<rect fill="none" height="168" stroke="#000000" stroke-width="1" width="244" x="454" y="462"/>
<text font-family="Dialog" font-size="12" x="549" y="475">
Location</text>
<rect fill="#000000" height="1" stroke="#000000" stroke-width="1" width="244" x="454" y="485"/>
<text font-family="Dialog" font-size="12" x="458" y="499">
lat: Double</text>
<text font-family="Dialog" font-size="12" x="458" y="515">
long: Double</text>
<text font-family="Dialog" font-size="12" x="458" y="531">
name : String</text>
<text font-family="Dialog" font-size="12" x="458" y="547">
description : String</text>
<text font-family="Dialog" font-size="12" x="458" y="563">
rating : Integer</text>
<text font-family="Dialog" font-size="12" x="458" y="579">
intensive : Boolean</text>
<text font-family="Dialog" font-size="12" x="458" y="595">
excludedCategory : Client</text>
<rect fill="#000000" height="1" stroke="#000000" stroke-width="1" width="244" x="454" y="605"/>
<text font-family="Dialog" font-size="12" x="458" y="619">
distance(location : Location) : Integer</text>
<rect fill="#ffffff" height="67" stroke="#ffffff" stroke-width="1" width="66" x="14" y="110"/>
<rect fill="none" height="67" stroke="#000000" stroke-width="1" width="66" x="14" y="110"/>
<text font-family="Dialog" font-size="12" x="27" y="123">
Young</text>
<rect fill="#000000" height="1" stroke="#000000" stroke-width="1" width="66" x="14" y="133"/>
<rect fill="#000000" height="1" stroke="#000000" stroke-width="1" width="66" x="14" y="154"/>
<rect fill="#ffffff" height="67" stroke="#ffffff" stroke-width="1" width="66" x="14" y="182"/>
<rect fill="none" height="67" stroke="#000000" stroke-width="1" width="66" x="14" y="182"/>
<text font-family="Dialog" font-size="12" x="31" y="195">
Adult</text>
<rect fill="#000000" height="1" stroke="#000000" stroke-width="1" width="66" x="14" y="205"/>
<rect fill="#000000" height="1" stroke="#000000" stroke-width="1" width="66" x="14" y="226"/>
<rect fill="#ffffff" height="66" stroke="#ffffff" stroke-width="1" width="86" x="14" y="254"/>
<rect fill="none" height="66" stroke="#000000" stroke-width="1" width="86" x="14" y="254"/>
<text font-family="Dialog" font-size="12" x="19" y="267">
Middle aged</text>
<rect fill="#000000" height="1" stroke="#000000" stroke-width="1" width="86" x="14" y="277"/>
<rect fill="#000000" height="1" stroke="#000000" stroke-width="1" width="86" x="14" y="298"/>
<rect fill="#ffffff" height="67" stroke="#ffffff" stroke-width="1" width="66" x="14" y="334"/>
<rect fill="none" height="67" stroke="#000000" stroke-width="1" width="66" x="14" y="334"/>
<text font-family="Dialog" font-size="12" x="26" y="347">
Elderly</text>
<rect fill="#000000" height="1" stroke="#000000" stroke-width="1" width="66" x="14" y="357"/>
<rect fill="#000000" height="1" stroke="#000000" stroke-width="1" width="66" x="14" y="378"/>
<rect fill="#ffffff" height="66" stroke="#ffffff" stroke-width="1" width="66" x="422" y="694"/>
<rect fill="none" height="66" stroke="#000000" stroke-width="1" width="66" x="422" y="694"/>
<text font-family="Dialog" font-size="12" x="431" y="707">
Cultural</text>
<rect fill="#000000" height="1" stroke="#000000" stroke-width="1" width="66" x="422" y="717"/>
<rect fill="#000000" height="1" stroke="#000000" stroke-width="1" width="66" x="422" y="738"/>
<rect fill="#ffffff" height="67" stroke="#ffffff" stroke-width="1" width="89" x="494" y="694"/>
<rect fill="none" height="67" stroke="#000000" stroke-width="1" width="89" x="494" y="694"/>
<text font-family="Dialog" font-size="12" x="499" y="707">
Gastronomic</text>
<rect fill="#000000" height="1" stroke="#000000" stroke-width="1" width="89" x="494" y="717"/>
<rect fill="#000000" height="1" stroke="#000000" stroke-width="1" width="89" x="494" y="738"/>
<rect fill="#ffffff" height="69" stroke="#ffffff" stroke-width="1" width="119" x="598" y="694"/>
<rect fill="none" height="69" stroke="#000000" stroke-width="1" width="119" x="598" y="694"/>
<text font-family="Dialog" font-size="12" x="612" y="707">
Entertainment</text>
<rect fill="#000000" height="1" stroke="#000000" stroke-width="1" width="119" x="598" y="717"/>
<text font-family="Dialog" font-size="12" x="602" y="731">
forKids : Boolean</text>
<rect fill="#000000" height="1" stroke="#000000" stroke-width="1" width="119" x="598" y="741"/>
<rect fill="#ffffff" height="66" stroke="#ffffff" stroke-width="1" width="72" x="342" y="694"/>
<rect fill="none" height="66" stroke="#000000" stroke-width="1" width="72" x="342" y="694"/>
<text font-family="Dialog" font-size="12" x="348" y="707">
Shopping</text>
<rect fill="#000000" height="1" stroke="#000000" stroke-width="1" width="72" x="342" y="717"/>
<rect fill="#000000" height="1" stroke="#000000" stroke-width="1" width="72" x="342" y="738"/>
<rect fill="#ffffff" height="69" stroke="#ffffff" stroke-width="1" width="68" x="670" y="830"/>
<rect fill="none" height="69" stroke="#000000" stroke-width="1" width="68" x="670" y="830"/>
<text font-family="Dialog" font-size="12" x="675" y="843">
Outdoors</text>
<rect fill="#000000" height="1" stroke="#000000" stroke-width="1" width="68" x="670" y="853"/>
<rect fill="#000000" height="1" stroke="#000000" stroke-width="1" width="68" x="670" y="875"/>
<rect fill="#ffffff" height="69" stroke="#ffffff" stroke-width="1" width="122" x="438" y="830"/>
<rect fill="none" height="69" stroke="#000000" stroke-width="1" width="122" x="438" y="830"/>
<text font-family="Dialog" font-size="12" x="443" y="843">
Historical location</text>
<rect fill="#000000" height="1" stroke="#000000" stroke-width="1" width="122" x="438" y="853"/>
<rect fill="#000000" height="1" stroke="#000000" stroke-width="1" width="122" x="438" y="875"/>
<rect fill="#ffffff" height="66" stroke="#ffffff" stroke-width="1" width="66" x="366" y="830"/>
<rect fill="none" height="66" stroke="#000000" stroke-width="1" width="66" x="366" y="830"/>
<text font-family="Dialog" font-size="12" x="373" y="843">
Museum</text>
<rect fill="#000000" height="1" stroke="#000000" stroke-width="1" width="66" x="366" y="853"/>
<rect fill="#000000" height="1" stroke="#000000" stroke-width="1" width="66" x="366" y="874"/>
<rect fill="#ffffff" height="67" stroke="#ffffff" stroke-width="1" width="84" x="742" y="830"/>
<rect fill="none" height="67" stroke="#000000" stroke-width="1" width="84" x="742" y="830"/>
<text font-family="Dialog" font-size="12" x="747" y="843">
Amusement</text>
<rect fill="#000000" height="1" stroke="#000000" stroke-width="1" width="84" x="742" y="853"/>
<rect fill="#000000" height="1" stroke="#000000" stroke-width="1" width="84" x="742" y="874"/>
<rect fill="#ffffff" height="67" stroke="#ffffff" stroke-width="1" width="90" x="574" y="830"/>
<rect fill="none" height="67" stroke="#000000" stroke-width="1" width="90" x="574" y="830"/>
<text font-family="Dialog" font-size="12" x="579" y="843">
Performance</text>
<rect fill="#000000" height="1" stroke="#000000" stroke-width="1" width="90" x="574" y="853"/>
<rect fill="#000000" height="1" stroke="#000000" stroke-width="1" width="90" x="574" y="874"/>
<polyline fill="none" points="413,694 462,654 462,629" stroke="#000000" stroke-width="1"/>
<polygon fill="#ffffff" points="462,629 469,641 455,641" stroke="#ffffff" stroke-width="1"/>
<polygon fill="none" points="462,629 469,641 455,641" stroke="#000000" stroke-width="1"/>
<polyline fill="none" points="479,694 479,629" stroke="#000000" stroke-width="1"/>
<polygon fill="#ffffff" points="479,629 486,641 472,641" stroke="#ffffff" stroke-width="1"/>
<polygon fill="none" points="479,629 486,641 472,641" stroke="#000000" stroke-width="1"/>
<polyline fill="none" points="550,694 550,629" stroke="#000000" stroke-width="1"/>
<polygon fill="#ffffff" points="550,629 557,641 543,641" stroke="#ffffff" stroke-width="1"/>
<polygon fill="none" points="550,629 557,641 543,641" stroke="#000000" stroke-width="1"/>
<polyline fill="none" points="598,694 582,662 582,629" stroke="#000000" stroke-width="1"/>
<polygon fill="#ffffff" points="582,629 589,641 575,641" stroke="#ffffff" stroke-width="1"/>
<polygon fill="none" points="582,629 589,641 575,641" stroke="#000000" stroke-width="1"/>
<polyline fill="none" points="430,830 430,759" stroke="#000000" stroke-width="1"/>
<polygon fill="#ffffff" points="430,759 437,771 423,771" stroke="#ffffff" stroke-width="1"/>
<polygon fill="none" points="430,759 437,771 423,771" stroke="#000000" stroke-width="1"/>
<polyline fill="none" points="463,830 463,759" stroke="#000000" stroke-width="1"/>
<polygon fill="#ffffff" points="463,759 470,771 456,771" stroke="#ffffff" stroke-width="1"/>
<polygon fill="none" points="463,759 470,771 456,771" stroke="#000000" stroke-width="1"/>
<polyline fill="none" points="742,830 702,806 702,762" stroke="#000000" stroke-width="1"/>
<polygon fill="#ffffff" points="702,762 709,774 695,774" stroke="#ffffff" stroke-width="1"/>
<polygon fill="none" points="702,762 709,774 695,774" stroke="#000000" stroke-width="1"/>
<polyline fill="none" points="638,830 638,762" stroke="#000000" stroke-width="1"/>
<polygon fill="#ffffff" points="638,762 645,774 631,774" stroke="#ffffff" stroke-width="1"/>
<polygon fill="none" points="638,762 645,774 631,774" stroke="#000000" stroke-width="1"/>
<polyline fill="none" points="678,830 678,762" stroke="#000000" stroke-width="1"/>
<polygon fill="#ffffff" points="678,762 685,774 671,774" stroke="#ffffff" stroke-width="1"/>
<polygon fill="none" points="678,762 685,774 671,774" stroke="#000000" stroke-width="1"/>
<rect fill="#ffffff" height="69" stroke="#ffffff" stroke-width="1" width="113" x="766" y="190"/>
<rect fill="none" height="69" stroke="#000000" stroke-width="1" width="113" x="766" y="190"/>
<text font-family="Dialog" font-size="12" x="796" y="203">
TimeSlot</text>
<rect fill="#000000" height="1" stroke="#000000" stroke-width="1" width="113" x="766" y="213"/>
<rect fill="#000000" height="1" stroke="#000000" stroke-width="1" width="113" x="766" y="235"/>
<rect fill="#ffffff" height="67" stroke="#ffffff" stroke-width="1" width="66" x="614" y="342"/>
<rect fill="none" height="67" stroke="#000000" stroke-width="1" width="66" x="614" y="342"/>
<text font-family="Dialog" font-size="12" x="622" y="355">
Morning</text>
<rect fill="#000000" height="1" stroke="#000000" stroke-width="1" width="66" x="614" y="365"/>
<rect fill="#000000" height="1" stroke="#000000" stroke-width="1" width="66" x="614" y="386"/>
<rect fill="#ffffff" height="67" stroke="#ffffff" stroke-width="1" width="66" x="846" y="342"/>
<rect fill="none" height="67" stroke="#000000" stroke-width="1" width="66" x="846" y="342"/>
<text font-family="Dialog" font-size="12" x="864" y="355">
Meal</text>
<rect fill="#000000" height="1" stroke="#000000" stroke-width="1" width="66" x="846" y="365"/>
<rect fill="#000000" height="1" stroke="#000000" stroke-width="1" width="66" x="846" y="386"/>
<rect fill="#ffffff" height="67" stroke="#ffffff" stroke-width="1" width="66" x="774" y="342"/>
<rect fill="none" height="67" stroke="#000000" stroke-width="1" width="66" x="774" y="342"/>
<text font-family="Dialog" font-size="12" x="782" y="355">
Evening</text>
<rect fill="#000000" height="1" stroke="#000000" stroke-width="1" width="66" x="774" y="365"/>
<rect fill="#000000" height="1" stroke="#000000" stroke-width="1" width="66" x="774" y="386"/>
<rect fill="#ffffff" height="67" stroke="#ffffff" stroke-width="1" width="72" x="694" y="342"/>
<rect fill="none" height="67" stroke="#000000" stroke-width="1" width="72" x="694" y="342"/>
<text font-family="Dialog" font-size="12" x="699" y="355">
Afternoon</text>
<rect fill="#000000" height="1" stroke="#000000" stroke-width="1" width="72" x="694" y="365"/>
<rect fill="#000000" height="1" stroke="#000000" stroke-width="1" width="72" x="694" y="386"/>
<polyline fill="none" points="679,342 782,310 782,258" stroke="#000000" stroke-width="1"/>
<polygon fill="#ffffff" points="782,258 789,270 775,270" stroke="#ffffff" stroke-width="1"/>
<polygon fill="none" points="782,258 789,270 775,270" stroke="#000000" stroke-width="1"/>
<polyline fill="none" points="765,342 822,318 822,258" stroke="#000000" stroke-width="1"/>
<polygon fill="#ffffff" points="822,258 829,270 815,270" stroke="#ffffff" stroke-width="1"/>
<polygon fill="none" points="822,258 829,270 815,270" stroke="#000000" stroke-width="1"/>
<polyline fill="none" points="838,342 838,258" stroke="#333399" stroke-width="1"/>
<polygon fill="#ffffff" points="838,258 845,270 831,270" stroke="#ffffff" stroke-width="1"/>
<polygon fill="none" points="838,258 845,270 831,270" stroke="#333399" stroke-width="1"/>
<polyline fill="none" points="878,342 878,258" stroke="#333399" stroke-width="1"/>
<polygon fill="#ffffff" points="878,258 885,270 871,270" stroke="#ffffff" stroke-width="1"/>
<polygon fill="none" points="878,258 885,270 871,270" stroke="#333399" stroke-width="1"/>
<rect fill="#ffffff" height="72" stroke="#ffffff" stroke-width="1" width="136" x="166" y="398"/>
<rect fill="none" height="72" stroke="#000000" stroke-width="1" width="136" x="166" y="398"/>
<text font-family="Dialog" font-size="12" x="199" y="411">
Preference</text>
<rect fill="#000000" height="1" stroke="#000000" stroke-width="1" width="136" x="166" y="421"/>
<text font-family="Dialog" font-size="12" x="170" y="435">
range: [1,2..5]</text>
<rect fill="#000000" height="1" stroke="#000000" stroke-width="1" width="136" x="166" y="446"/>
<rect fill="#ffffff" height="66" stroke="#ffffff" stroke-width="1" width="69" x="54" y="558"/>
<rect fill="none" height="66" stroke="#000000" stroke-width="1" width="69" x="54" y="558"/>
<text font-family="Dialog" font-size="12" x="59" y="571">
Shopping</text>
<rect fill="#000000" height="1" stroke="#000000" stroke-width="1" width="69" x="54" y="581"/>
<rect fill="#000000" height="1" stroke="#000000" stroke-width="1" width="69" x="54" y="602"/>
<polyline fill="none" points="122,558 190,526 190,469" stroke="#333399" stroke-width="1"/>
<polygon fill="#ffffff" points="190,469 197,481 183,481" stroke="#ffffff" stroke-width="1"/>
<polygon fill="none" points="190,469 197,481 183,481" stroke="#333399" stroke-width="1"/>
<rect fill="#ffffff" height="67" stroke="#ffffff" stroke-width="1" width="66" x="126" y="558"/>
<rect fill="none" height="67" stroke="#000000" stroke-width="1" width="66" x="126" y="558"/>
<text font-family="Dialog" font-size="12" x="136" y="571">
Culture</text>
<rect fill="#000000" height="1" stroke="#000000" stroke-width="1" width="66" x="126" y="581"/>
<rect fill="#000000" height="1" stroke="#000000" stroke-width="1" width="66" x="126" y="602"/>
<rect fill="#ffffff" height="67" stroke="#ffffff" stroke-width="1" width="85" x="198" y="558"/>
<rect fill="none" height="67" stroke="#000000" stroke-width="1" width="85" x="198" y="558"/>
<text font-family="Dialog" font-size="12" x="203" y="571">
Gastronomy</text>
<rect fill="#000000" height="1" stroke="#000000" stroke-width="1" width="85" x="198" y="581"/>
<rect fill="#000000" height="1" stroke="#000000" stroke-width="1" width="85" x="198" y="602"/>
<rect fill="#ffffff" height="67" stroke="#ffffff" stroke-width="1" width="66" x="286" y="558"/>
<rect fill="none" height="67" stroke="#000000" stroke-width="1" width="66" x="286" y="558"/>
<text font-family="Dialog" font-size="12" x="292" y="571">
NightLife</text>
<rect fill="#000000" height="1" stroke="#000000" stroke-width="1" width="66" x="286" y="581"/>
<rect fill="#000000" height="1" stroke="#000000" stroke-width="1" width="66" x="286" y="602"/>
<polyline fill="none" points="191,558 206,526 206,469" stroke="#000000" stroke-width="1"/>
<polygon fill="#ffffff" points="206,469 213,481 199,481" stroke="#ffffff" stroke-width="1"/>
<polygon fill="none" points="206,469 213,481 199,481" stroke="#000000" stroke-width="1"/>
<polyline fill="none" points="230,558 230,469" stroke="#000000" stroke-width="1"/>
<polygon fill="#ffffff" points="230,469 237,481 223,481" stroke="#ffffff" stroke-width="1"/>
<polygon fill="none" points="230,469 237,481 223,481" stroke="#000000" stroke-width="1"/>
<polyline fill="none" points="286,558 278,526 278,469" stroke="#333399" stroke-width="1"/>
<polygon fill="#ffffff" points="278,469 285,481 271,481" stroke="#ffffff" stroke-width="1"/>
<polygon fill="none" points="278,469 285,481 271,481" stroke="#333399" stroke-width="1"/>
<polyline fill="none" points="614,150 766,150 766,190" stroke="#000000" stroke-width="1"/>
<polygon fill="#000000" points="614,150 624,145 634,150 624,155" stroke="#000000" stroke-width="1"/>
<polygon fill="none" points="614,150 624,145 634,150 624,155" stroke="#000000" stroke-width="1"/>
<text font-family="Dialog" font-size="12" x="674" y="145">
composed</text>
<text font-family="Dialog" font-size="12" x="625" y="145">
1</text>
<text font-family="Dialog" font-size="12" x="779" y="173">
4</text>
<polyline fill="none" points="238,253 238,398" stroke="#000000" stroke-width="1"/>
<text font-family="Dialog" font-size="12" x="240" y="329">
expresses</text>
<text font-family="Dialog" font-size="12" x="217" y="272">
1</text>
<text font-family="Dialog" font-size="12" x="209" y="390">
0..*</text>
<polyline fill="none" points="301,438 462,438 462,317" stroke="#000000" stroke-width="1"/>
<text font-family="Dialog" font-size="12" x="349" y="431">
relative to</text>
<text font-family="Dialog" font-size="12" x="312" y="433">
4</text>
<text font-family="Dialog" font-size="12" x="440" y="337">
1</text>
<polyline fill="none" points="542,230 542,170" stroke="#000000" stroke-width="1"/>
<polygon fill="#000000" points="542,230 537,220 542,210 547,220" stroke="#000000" stroke-width="1"/>
<polygon fill="none" points="542,230 537,220 542,210 547,220" stroke="#000000" stroke-width="1"/>
<text font-family="Dialog" font-size="12" x="521" y="223">
1</text>
<text font-family="Dialog" font-size="12" x="514" y="194">
1..*</text>
<polyline fill="none" points="269,253 358,253" stroke="#000000" stroke-width="1"/>
<text font-family="Dialog" font-size="12" x="267" y="272">
participates to</text>
<text font-family="Dialog" font-size="12" x="280" y="248">
1</text>
<text font-family="Dialog" font-size="12" x="332" y="248">
1..*</text>
<polyline fill="none" points="79,176 158,176" stroke="#333399" stroke-width="1"/>
<polygon fill="#ffffff" points="158,176 146,183 146,169" stroke="#ffffff" stroke-width="1"/>
<polygon fill="none" points="158,176 146,183 146,169" stroke="#333399" stroke-width="1"/>
<polyline fill="none" points="79,214 158,214" stroke="#333399" stroke-width="1"/>
<polygon fill="#ffffff" points="158,214 146,221 146,207" stroke="#ffffff" stroke-width="1"/>
<polygon fill="none" points="158,214 146,221 146,207" stroke="#333399" stroke-width="1"/>
<polyline fill="none" points="99,254 158,253" stroke="#333399" stroke-width="1"/>
<polygon fill="#ffffff" points="158,253 146,260 145,246" stroke="#ffffff" stroke-width="1"/>
<polygon fill="none" points="158,253 146,260 145,246" stroke="#333399" stroke-width="1"/>
<polyline fill="none" points="79,350 174,350 174,253" stroke="#333399" stroke-width="1"/>
<polygon fill="#ffffff" points="174,253 181,265 167,265" stroke="#ffffff" stroke-width="1"/>
<polygon fill="none" points="174,253 181,265 167,265" stroke="#333399" stroke-width="1"/>
<rect fill="#ffffff" height="72" stroke="#ffffff" stroke-width="1" width="144" x="350" y="14"/>
<rect fill="none" height="72" stroke="#000000" stroke-width="1" width="144" x="350" y="14"/>
<text font-family="Dialog" font-size="12" x="389" y="27">
Constraint</text>
<rect fill="#000000" height="1" stroke="#000000" stroke-width="1" width="144" x="350" y="37"/>
<text font-family="Dialog" font-size="12" x="354" y="51">
type:{include, avoid}</text>
<rect fill="#000000" height="1" stroke="#000000" stroke-width="1" width="144" x="350" y="62"/>
<polyline fill="none" points="238,158 238,78 350,78" stroke="#333399" stroke-width="1"/>
<text font-family="Dialog" font-size="12" x="226" y="73">
expresses</text>
<text font-family="Dialog" font-size="12" x="216" y="149">
1</text>
<text font-family="Dialog" font-size="12" x="324" y="73">
0..*</text>
<polyline fill="none" points="468,85 468,230" stroke="#333399" stroke-width="1"/>
<text font-family="Dialog" font-size="12" x="378" y="158">
relative to</text>
<text font-family="Dialog" font-size="12" x="439" y="100">
0..*</text>
<text font-family="Dialog" font-size="12" x="482" y="223">
1</text>
<polyline fill="none" points="493,54 950,54 950,526 697,526" stroke="#333399" stroke-width="1"/>
<text font-family="Dialog" font-size="12" x="858" y="78">
refers to</text>
<text font-family="Dialog" font-size="12" x="496" y="49">
0..1</text>
<text font-family="Dialog" font-size="12" x="708" y="521">
1</text>
<polyline fill="none" points="878,238 934,238 934,502 697,502" stroke="#333399" stroke-width="1"/>
<text font-family="Dialog" font-size="12" x="882" y="233">
0..*</text>
<text font-family="Dialog" font-size="12" x="700" y="497">
0..1</text>
</svg>
