<?xml version="1.0" encoding="UTF-8" standalone="no"?>
<!DOCTYPE svg PUBLIC "-//W3C//DTD SVG 1.0//EN" "http://www.w3.org/TR/2001/PR-SVG-20010719/DTD/svg10.dtd">
<svg width="46cm" height="29cm" viewBox="56 -22 906 568" xmlns="http://www.w3.org/2000/svg" xmlns:xlink="http://www.w3.org/1999/xlink">
  <g>
    <rect style="fill: #ffffff" x="90.6812" y="16" width="107.638" height="38"/>
    <rect style="fill: none; fill-opacity:0; stroke-width: 2; stroke: #000000" x="90.6812" y="16" width="107.638" height="38"/>
    <text font-size="12.8" style="fill: #000000;text-anchor:middle;font-family:sans-serif;font-style:normal;font-weight:normal" x="144.5" y="38.9">
      <tspan x="144.5" y="38.9">requirements</tspan>
    </text>
  </g>
  <g>
    <rect style="fill: #ffffff" x="490.672" y="13.6" width="117.894" height="38"/>
    <rect style="fill: none; fill-opacity:0; stroke-width: 2; stroke: #000000" x="490.672" y="13.6" width="117.894" height="38"/>
    <text font-size="12.8" style="fill: #000000;text-anchor:middle;font-family:sans-serif;font-style:normal;font-weight:normal" x="549.619" y="36.5">
      <tspan x="549.619" y="36.5">skeletal design</tspan>
    </text>
  </g>
  <g>
    <rect style="fill: #ffffff" x="247.506" y="106.2" width="215.825" height="38"/>
    <rect style="fill: none; fill-opacity:0; stroke-width: 2; stroke: #000000" x="247.506" y="106.2" width="215.825" height="38"/>
    <text font-size="12.8" style="fill: #000000;text-anchor:middle;font-family:sans-serif;font-style:normal;font-weight:normal" x="355.418" y="129.1">
      <tspan x="355.418" y="129.1">preferences and requirements</tspan>
    </text>
  </g>
  <g>
    <rect style="fill: #ffffff" x="284.612" y="200.4" width="140.812" height="38"/>
    <rect style="fill: none; fill-opacity:0; stroke-width: 2; stroke: #000000" x="284.612" y="200.4" width="140.812" height="38"/>
    <text font-size="12.8" style="fill: #000000;text-anchor:middle;font-family:sans-serif;font-style:normal;font-weight:normal" x="355.018" y="223.3">
      <tspan x="355.018" y="223.3">constraints</tspan>
    </text>
  </g>
  <g>
    <rect style="fill: #ffffff" x="646" y="202" width="107.638" height="38"/>
    <rect style="fill: none; fill-opacity:0; stroke-width: 2; stroke: #000000" x="646" y="202" width="107.638" height="38"/>
    <text font-size="12.8" style="fill: #000000;text-anchor:middle;font-family:sans-serif;font-style:normal;font-weight:normal" x="699.819" y="224.9">
      <tspan x="699.819" y="224.9">itinerary</tspan>
    </text>
  </g>
  <g>
    <rect style="fill: #ffffff" x="378.7" y="297.2" width="136.2" height="38"/>
    <rect style="fill: none; fill-opacity:0; stroke-width: 2; stroke: #000000" x="378.7" y="297.2" width="136.2" height="38"/>
    <text font-size="12.8" style="fill: #000000;text-anchor:middle;font-family:sans-serif;font-style:normal;font-weight:normal" x="446.8" y="320.1">
      <tspan x="446.8" y="320.1">modified itinerary</tspan>
    </text>
  </g>
  <g>
    <rect style="fill: #ffffff" x="57.4" y="394.8" width="107.638" height="38"/>
    <rect style="fill: none; fill-opacity:0; stroke-width: 2; stroke: #000000" x="57.4" y="394.8" width="107.638" height="38"/>
    <text font-size="12.8" style="fill: #000000;text-anchor:middle;font-family:sans-serif;font-style:normal;font-weight:normal" x="111.219" y="417.7">
      <tspan x="111.219" y="417.7">action</tspan>
    </text>
  </g>
  <g>
    <rect style="fill: #ffffff" x="332.8" y="487.6" width="107.638" height="38"/>
    <rect style="fill: none; fill-opacity:0; stroke-width: 2; stroke: #000000" x="332.8" y="487.6" width="107.638" height="38"/>
    <text font-size="12.8" style="fill: #000000;text-anchor:middle;font-family:sans-serif;font-style:normal;font-weight:normal" x="386.619" y="510.5">
      <tspan x="386.619" y="510.5">action list</tspan>
    </text>
  </g>
  <g>
    <rect style="fill: #ffffff" x="533.4" y="408.8" width="107.638" height="38"/>
    <rect style="fill: none; fill-opacity:0; stroke-width: 2; stroke: #000000" x="533.4" y="408.8" width="107.638" height="38"/>
    <text font-size="12.8" style="fill: #000000;text-anchor:middle;font-family:sans-serif;font-style:normal;font-weight:normal" x="587.219" y="431.7">
      <tspan x="587.219" y="431.7">violation</tspan>
    </text>
  </g>
  <g>
    <ellipse style="fill: #ffffff" cx="349.932" cy="33.4664" rx="48.4343" ry="22.7057"/>
    <ellipse style="fill: none; fill-opacity:0; stroke-width: 2; stroke: #000000" cx="349.932" cy="33.4664" rx="48.4343" ry="22.7057"/>
    <text font-size="12.8" style="fill: #000000;text-anchor:middle;font-family:sans-serif;font-style:normal;font-weight:normal" x="349.932" y="37.3664">
      <tspan x="349.932" y="37.3664">specify</tspan>
    </text>
  </g>
  <g>
    <line style="fill: none; fill-opacity:0; stroke-width: 2; stroke: #000000" x1="198.319" y1="35" x2="290.499" y2="33.6299"/>
    <polygon style="fill: #000000" points="290.574,38.6293 300.498,33.4813 290.425,28.6304 "/>
    <polygon style="fill: none; fill-opacity:0; stroke-width: 2; stroke: #000000" points="290.574,38.6293 300.498,33.4813 290.425,28.6304 "/>
  </g>
  <g>
    <line style="fill: none; fill-opacity:0; stroke-width: 2; stroke: #000000" x1="398.368" y1="33.4664" x2="479.672" y2="32.7032"/>
    <polygon style="fill: #000000" points="479.719,37.703 489.672,32.6094 479.626,27.7035 "/>
    <polygon style="fill: none; fill-opacity:0; stroke-width: 2; stroke: #000000" points="479.719,37.703 489.672,32.6094 479.626,27.7035 "/>
  </g>
  <g>
    <ellipse style="fill: #ffffff" cx="144.234" cy="125.306" rx="62.8327" ry="29.4556"/>
    <ellipse style="fill: none; fill-opacity:0; stroke-width: 2; stroke: #000000" cx="144.234" cy="125.306" rx="62.8327" ry="29.4556"/>
    <text font-size="12.8" style="fill: #000000;text-anchor:middle;font-family:sans-serif;font-style:normal;font-weight:normal" x="144.234" y="129.206">
      <tspan x="144.234" y="129.206">operationalize</tspan>
    </text>
  </g>
  <g>
    <line style="fill: none; fill-opacity:0; stroke-width: 2; stroke: #000000" x1="144.5" y1="54" x2="144.304" y2="84.8502"/>
    <polygon style="fill: #000000" points="139.304,84.8185 144.241,94.85 149.304,84.882 "/>
    <polygon style="fill: none; fill-opacity:0; stroke-width: 2; stroke: #000000" points="139.304,84.8185 144.241,94.85 149.304,84.882 "/>
  </g>
  <g>
    <polyline style="fill: none; fill-opacity:0; stroke-width: 2; stroke: #000000" points="144.234,154.761 144.234,228.9 273.612,228.9 "/>
    <polygon style="fill: #000000" points="273.612,233.9 283.612,228.9 273.612,223.9 "/>
    <polygon style="fill: none; fill-opacity:0; stroke-width: 2; stroke: #000000" points="273.612,233.9 283.612,228.9 273.612,223.9 "/>
  </g>
  <g>
    <line style="fill: none; fill-opacity:0; stroke-width: 2; stroke: #000000" x1="207.067" y1="125.306" x2="236.506" y2="125.229"/>
    <polygon style="fill: #000000" points="236.519,130.229 246.506,125.203 236.493,120.229 "/>
    <polygon style="fill: none; fill-opacity:0; stroke-width: 2; stroke: #000000" points="236.519,130.229 246.506,125.203 236.493,120.229 "/>
  </g>
  <g>
    <ellipse style="fill: #ffffff" cx="550.234" cy="222.306" rx="48.4343" ry="22.7057"/>
    <ellipse style="fill: none; fill-opacity:0; stroke-width: 2; stroke: #000000" cx="550.234" cy="222.306" rx="48.4343" ry="22.7057"/>
    <text font-size="12.8" style="fill: #000000;text-anchor:middle;font-family:sans-serif;font-style:normal;font-weight:normal" x="550.234" y="226.206">
      <tspan x="550.234" y="226.206">propose</tspan>
    </text>
  </g>
  <g>
    <line style="fill: none; fill-opacity:0; stroke-width: 2; stroke: #000000" x1="598.669" y1="222.306" x2="635.004" y2="221.303"/>
    <polygon style="fill: #000000" points="635.142,226.301 645,221.028 634.866,216.305 "/>
    <polygon style="fill: none; fill-opacity:0; stroke-width: 2; stroke: #000000" points="635.142,226.301 645,221.028 634.866,216.305 "/>
  </g>
  <g>
    <ellipse style="fill: #ffffff" cx="698.234" cy="318.3" rx="48.4343" ry="23.7"/>
    <ellipse style="fill: none; fill-opacity:0; stroke-width: 2; stroke: #000000" cx="698.234" cy="318.3" rx="48.4343" ry="23.7"/>
    <text font-size="12.8" style="fill: #000000;text-anchor:middle;font-family:sans-serif;font-style:normal;font-weight:normal" x="698.234" y="322.2">
      <tspan x="698.234" y="322.2">verify</tspan>
    </text>
  </g>
  <g>
    <ellipse style="fill: #ffffff" cx="413.234" cy="427.306" rx="48.4343" ry="22.7057"/>
    <ellipse style="fill: none; fill-opacity:0; stroke-width: 2; stroke: #000000" cx="413.234" cy="427.306" rx="48.4343" ry="22.7057"/>
    <text font-size="12.8" style="fill: #000000;text-anchor:middle;font-family:sans-serif;font-style:normal;font-weight:normal" x="413.234" y="431.206">
      <tspan x="413.234" y="431.206">critique</tspan>
    </text>
  </g>
  <g>
    <ellipse style="fill: #ffffff" cx="110.034" cy="314.906" rx="48.4343" ry="22.7057"/>
    <ellipse style="fill: none; fill-opacity:0; stroke-width: 2; stroke: #000000" cx="110.034" cy="314.906" rx="48.4343" ry="22.7057"/>
    <text font-size="12.8" style="fill: #000000;text-anchor:middle;font-family:sans-serif;font-style:normal;font-weight:normal" x="110.034" y="318.806">
      <tspan x="110.034" y="318.806">modify</tspan>
    </text>
  </g>
  <g>
    <ellipse style="fill: #ffffff" cx="109.234" cy="507.306" rx="48.4343" ry="22.7057"/>
    <ellipse style="fill: none; fill-opacity:0; stroke-width: 2; stroke: #000000" cx="109.234" cy="507.306" rx="48.4343" ry="22.7057"/>
    <text font-size="12.8" style="fill: #000000;text-anchor:middle;font-family:sans-serif;font-style:normal;font-weight:normal" x="109.234" y="511.206">
      <tspan x="109.234" y="511.206">select</tspan>
    </text>
  </g>
  <g>
    <line style="fill: none; fill-opacity:0; stroke-width: 2; stroke: #000000" x1="515.9" y1="316.915" x2="638.801" y2="318.186"/>
    <polygon style="fill: #000000" points="638.749,323.186 648.8,318.29 638.852,313.186 "/>
    <polygon style="fill: none; fill-opacity:0; stroke-width: 2; stroke: #000000" points="638.749,323.186 648.8,318.29 638.852,313.186 "/>
  </g>
  <g>
    <line style="fill: none; fill-opacity:0; stroke-width: 2; stroke: #000000" x1="533.4" y1="427.8" x2="472.668" y2="427.382"/>
    <polygon style="fill: #000000" points="472.703,422.382 462.669,427.313 472.634,432.381 "/>
    <polygon style="fill: none; fill-opacity:0; stroke-width: 2; stroke: #000000" points="472.703,422.382 462.669,427.313 472.634,432.381 "/>
  </g>
  <g>
    <line style="fill: none; fill-opacity:0; stroke-width: 2; stroke: #000000" x1="332.8" y1="506.6" x2="168.669" y2="507.261"/>
    <polygon style="fill: #000000" points="168.648,502.261 158.669,507.302 168.689,512.261 "/>
    <polygon style="fill: none; fill-opacity:0; stroke-width: 2; stroke: #000000" points="168.648,502.261 158.669,507.302 168.689,512.261 "/>
  </g>
  <g>
    <line style="fill: none; fill-opacity:0; stroke-width: 2; stroke: #000000" x1="109.234" y1="484.6" x2="110.798" y2="443.792"/>
    <polygon style="fill: #000000" points="115.794,443.983 111.18,433.799 105.801,443.601 "/>
    <polygon style="fill: none; fill-opacity:0; stroke-width: 2; stroke: #000000" points="115.794,443.983 111.18,433.799 105.801,443.601 "/>
  </g>
  <g>
    <line style="fill: none; fill-opacity:0; stroke-width: 2; stroke: #000000" x1="158.469" y1="314.906" x2="367.7" y2="316.135"/>
    <polygon style="fill: #000000" points="367.671,321.135 377.7,316.194 367.73,311.135 "/>
    <polygon style="fill: none; fill-opacity:0; stroke-width: 2; stroke: #000000" points="367.671,321.135 377.7,316.194 367.73,311.135 "/>
  </g>
  <g>
    <polyline style="fill: none; fill-opacity:0; stroke-width: 2; stroke: #000000" points="412.75,335.2 412.75,356.2 144.283,356.2 144.283,341.961 "/>
    <polygon style="fill: #000000" points="149.283,341.961 144.283,331.961 139.283,341.961 "/>
    <polygon style="fill: none; fill-opacity:0; stroke-width: 2; stroke: #000000" points="149.283,341.961 144.283,331.961 139.283,341.961 "/>
  </g>
  <g>
    <line style="fill: none; fill-opacity:0; stroke-width: 2; stroke: #000000" x1="111.219" y1="394.8" x2="110.262" y2="348.609"/>
    <polygon style="fill: #000000" points="115.261,348.506 110.055,338.611 105.263,348.713 "/>
    <polygon style="fill: none; fill-opacity:0; stroke-width: 2; stroke: #000000" points="115.261,348.506 110.055,338.611 105.263,348.713 "/>
  </g>
  <g>
    <line style="fill: none; fill-opacity:0; stroke-width: 2; stroke: #000000" x1="549.618" y1="51.6" x2="550.109" y2="187.613"/>
    <polygon style="fill: #000000" points="545.109,187.631 550.145,197.613 555.109,187.595 "/>
    <polygon style="fill: none; fill-opacity:0; stroke-width: 2; stroke: #000000" points="545.109,187.631 550.145,197.613 555.109,187.595 "/>
  </g>
  <g>
    <line style="fill: none; fill-opacity:0; stroke-width: 2; stroke: #000000" x1="699.493" y1="240.978" x2="698.813" y2="282.786"/>
    <polygon style="fill: #000000" points="693.813,282.705 698.65,292.785 703.812,282.868 "/>
    <polygon style="fill: none; fill-opacity:0; stroke-width: 2; stroke: #000000" points="693.813,282.705 698.65,292.785 703.812,282.868 "/>
  </g>
  <g>
    <rect style="fill: #ffffff" x="824.018" y="299.6" width="119.2" height="38"/>
    <rect style="fill: none; fill-opacity:0; stroke-width: 2; stroke: #000000" x="824.018" y="299.6" width="119.2" height="38"/>
    <text font-size="12.8" style="fill: #000000;text-anchor:middle;font-family:sans-serif;font-style:normal;font-weight:normal" x="883.618" y="322.5">
      <tspan x="883.618" y="322.5">customer input</tspan>
    </text>
  </g>
  <g>
    <rect style="fill: #ffffff" x="825.6" y="383.2" width="107.638" height="38"/>
    <rect style="fill: none; fill-opacity:0; stroke-width: 2; stroke: #000000" x="825.6" y="383.2" width="107.638" height="38"/>
    <text font-size="12.8" style="fill: #000000;text-anchor:middle;font-family:sans-serif;font-style:normal;font-weight:normal" x="879.419" y="406.1">
      <tspan x="879.419" y="406.1">truth value</tspan>
    </text>
  </g>
  <line style="fill: none; fill-opacity:0; stroke-width: 2; stroke: #000000" x1="463.331" y1="125.2" x2="549.883" y2="125.106"/>
  <g>
    <line style="fill: none; fill-opacity:0; stroke-width: 2; stroke: #000000" x1="426.42" y1="220.813" x2="490.802" y2="222.088"/>
    <polygon style="fill: #000000" points="490.703,227.087 500.8,222.286 490.901,217.089 "/>
    <polygon style="fill: none; fill-opacity:0; stroke-width: 2; stroke: #000000" points="490.703,227.087 500.8,222.286 490.901,217.089 "/>
  </g>
  <g>
    <polyline style="fill: none; fill-opacity:0; stroke-width: 2; stroke: #000000" points="716.769,340.196 717,340.196 717,402.2 814.6,402.2 "/>
    <polygon style="fill: #000000" points="814.6,407.2 824.6,402.2 814.6,397.2 "/>
    <polygon style="fill: none; fill-opacity:0; stroke-width: 2; stroke: #000000" points="814.6,407.2 824.6,402.2 814.6,397.2 "/>
  </g>
  <g>
    <polyline style="fill: none; fill-opacity:0; stroke-width: 2; stroke: #000000" points="679.699,340.196 680,340.196 680,427.8 652.038,427.8 "/>
    <polygon style="fill: #000000" points="652.038,422.8 642.038,427.8 652.038,432.8 "/>
    <polygon style="fill: none; fill-opacity:0; stroke-width: 2; stroke: #000000" points="652.038,422.8 642.038,427.8 652.038,432.8 "/>
  </g>
  <g>
    <line style="fill: none; fill-opacity:0; stroke-width: 2; stroke: #000000" x1="824.018" y1="318.6" x2="757.669" y2="318.343"/>
    <polygon style="fill: #000000" points="757.688,313.343 747.669,318.304 757.649,323.343 "/>
    <polygon style="fill: none; fill-opacity:0; stroke-width: 2; stroke: #000000" points="757.688,313.343 747.669,318.304 757.649,323.343 "/>
  </g>
  <g>
    <line style="fill: none; fill-opacity:0; stroke-width: 2; stroke: #000000" x1="413.234" y1="450.011" x2="413.442" y2="476.6"/>
    <polygon style="fill: #000000" points="408.442,476.639 413.52,486.6 418.442,476.561 "/>
    <polygon style="fill: none; fill-opacity:0; stroke-width: 2; stroke: #000000" points="408.442,476.639 413.52,486.6 418.442,476.561 "/>
  </g>
  <g>
    <line style="fill: none; fill-opacity:0; stroke-width: 2; stroke: #000000" x1="446.8" y1="335.2" x2="447.384" y2="400.251"/>
    <polygon style="fill: #000000" points="442.384,400.296 447.474,410.25 452.384,400.206 "/>
    <polygon style="fill: none; fill-opacity:0; stroke-width: 2; stroke: #000000" points="442.384,400.296 447.474,410.25 452.384,400.206 "/>
  </g>
  <text font-size="12.7998" style="fill: #000000;text-anchor:start;font-family:sans-serif;font-style:normal;font-weight:normal" x="640" y="110">
    <tspan x="640" y="110">constraint-rule</tspan>
    <tspan x="640" y="126">requirement-rule</tspan>
    <tspan x="640" y="142">preference-rule</tspan>
  </text>
  <line style="fill: none; fill-opacity:0; stroke-width: 2; stroke: #000000" x1="635" y1="95" x2="742" y2="95"/>
  <line style="fill: none; fill-opacity:0; stroke-width: 2; stroke: #000000" x1="635.5" y1="149.6" x2="742.5" y2="149.6"/>
  <g>
    <line style="fill: none; fill-opacity:0; stroke-width: 2; stroke: #000000" x1="639" y1="127" x2="590.717" y2="197.188"/>
    <polygon style="fill: #000000" points="586.598,194.354 585.049,205.426 594.836,200.021 "/>
    <polygon style="fill: none; fill-opacity:0; stroke-width: 2; stroke: #000000" points="586.598,194.354 585.049,205.426 594.836,200.021 "/>
  </g>
  <text font-size="12.8" style="fill: #000000;text-anchor:start;font-family:sans-serif;font-style:italic;font-weight:normal" x="82" y="-9">
    <tspan x="82" y="-9">trip_duration=3</tspan>
    <tspan x="82" y="7">needsFreeTime=true</tspan>
  </text>
  <text font-size="12.8" style="fill: #000000;text-anchor:start;font-family:sans-serif;font-style:italic;font-weight:normal" x="315" y="84">
    <tspan x="315" y="84">Shopping=3</tspan>
    <tspan x="315" y="100">Culture=5</tspan>
  </text>
  <text font-size="12.8" style="fill: #000000;text-anchor:start;font-family:sans-serif;font-style:italic;font-weight:normal" x="480" y="-10">
    <tspan x="480" y="-10">day1.afternoon=empty</tspan>
    <tspan x="480" y="6">day1.morning=empty</tspan>
  </text>
  <text font-size="12.8" style="fill: #000000;text-anchor:start;font-family:sans-serif;font-style:italic;font-weight:normal" x="298" y="192">
    <tspan x="298" y="192">Colosseum=avoid</tspan>
  </text>
  <text font-size="12.8" style="fill: #000000;text-anchor:start;font-family:sans-serif;font-style:italic;font-weight:normal" x="640.002" y="178">
    <tspan x="640.002" y="178">day1.afternoon=San Pietro</tspan>
    <tspan x="640.002" y="194">day1.morning=Piazza di Spagna</tspan>
  </text>
  <text font-size="12.8" style="fill: #000000;text-anchor:start;font-family:sans-serif;font-style:italic;font-weight:normal" x="808.002" y="293">
    <tspan x="808.002" y="293">Piazza di Spagna=avoid</tspan>
  </text>
  <text font-size="12.8" style="fill: #000000;text-anchor:start;font-family:sans-serif;font-style:italic;font-weight:normal" x="365.502" y="271.5">
    <tspan x="365.502" y="271.5">day1.afternoon=San Pietro</tspan>
    <tspan x="365.502" y="287.5">day1.morning=Pantheon</tspan>
  </text>
  <text font-size="12.8" style="fill: #000000;text-anchor:start;font-family:sans-serif;font-style:italic;font-weight:normal" x="508.502" y="462.5">
    <tspan x="508.502" y="462.5">Piazza di Spagna=avoid</tspan>
  </text>
  <text font-size="12.8" style="fill: #000000;text-anchor:start;font-family:sans-serif;font-style:italic;font-weight:normal" x="330.002" y="543">
    <tspan x="330.002" y="543">day1.morning=fix</tspan>
  </text>
  <text font-size="12.8" style="fill: #000000;text-anchor:start;font-family:sans-serif;font-style:italic;font-weight:normal" x="175.502" y="406.5">
    <tspan x="175.502" y="406.5">day1.morning=</tspan>
    <tspan x="175.502" y="422.5">selectLocation(preferences, </tspan>
    <tspan x="175.502" y="438.5">Piazza di Spagna=avoid)</tspan>
  </text>
  <text font-size="12.7998" style="fill: #000000;text-anchor:start;font-family:sans-serif;font-style:normal;font-weight:normal" x="273.002" y="406">
    <tspan x="273.002" y="406"></tspan>
  </text>
</svg>
