<?xml version="1.0" encoding="UTF-8" standalone="no"?>
<!DOCTYPE svg PUBLIC "-//W3C//DTD SVG 1.0//EN" "http://www.w3.org/TR/2001/PR-SVG-20010719/DTD/svg10.dtd">
<svg width="24cm" height="22cm" viewBox="54 37 479 425" xmlns="http://www.w3.org/2000/svg" xmlns:xlink="http://www.w3.org/1999/xlink">
  <g>
    <ellipse style="fill: #ffffff" cx="288.934" cy="139.151" rx="74.8374" ry="22.8495"/>
    <ellipse style="fill: none; fill-opacity:0; stroke-width: 2; stroke: #000000" cx="288.934" cy="139.151" rx="74.8374" ry="22.8495"/>
    <text font-size="12.8" style="fill: #000000;text-anchor:middle;font-family:sans-serif;font-style:normal;font-weight:normal" x="288.934" y="143.051">
      <tspan x="288.934" y="143.051">constraint-rule</tspan>
    </text>
  </g>
  <g>
    <line style="fill: none; fill-opacity:0; stroke-width: 2; stroke: #000000" x1="154" y1="59.6" x2="239" y2="59.0687"/>
    <polygon style="fill: #000000" points="239.031,64.0687 249,59.0062 238.969,54.0688 "/>
    <polygon style="fill: none; fill-opacity:0; stroke-width: 2; stroke: #000000" points="239.031,64.0687 249,59.0062 238.969,54.0688 "/>
  </g>
  <g>
    <rect style="fill: #ffffff" x="56.5" y="40.6" width="97.5" height="38"/>
    <rect style="fill: none; fill-opacity:0; stroke-width: 2; stroke: #000000" x="56.5" y="40.6" width="97.5" height="38"/>
    <text font-size="12.8" style="fill: #000000;text-anchor:middle;font-family:sans-serif;font-style:normal;font-weight:normal" x="105.25" y="63.5">
      <tspan x="105.25" y="63.5">Client</tspan>
    </text>
  </g>
  <g>
    <rect style="fill: #ffffff" x="432" y="39.2" width="99" height="38"/>
    <rect style="fill: none; fill-opacity:0; stroke-width: 2; stroke: #000000" x="432" y="39.2" width="99" height="38"/>
    <text font-size="12.8" style="fill: #000000;text-anchor:middle;font-family:sans-serif;font-style:normal;font-weight:normal" x="481.5" y="62.1">
      <tspan x="481.5" y="62.1">Itinerary</tspan>
    </text>
  </g>
  <text font-size="13.1965" style="fill: #000000;text-anchor:start;font-family:sans-serif;font-style:normal;font-weight:normal" x="261" y="62">
    <tspan x="261" y="62">restricts</tspan>
  </text>
  <g>
    <line style="fill: none; fill-opacity:0; stroke-width: 2; stroke: #000000" x1="324" y1="59" x2="421" y2="58.2815"/>
    <polygon style="fill: #000000" points="421.037,63.2813 431,58.2074 420.963,53.2816 "/>
    <polygon style="fill: none; fill-opacity:0; stroke-width: 2; stroke: #000000" points="421.037,63.2813 431,58.2074 420.963,53.2816 "/>
  </g>
  <line style="fill: none; fill-opacity:0; stroke-width: 2; stroke-dasharray: 4; stroke: #000000" x1="288.934" y1="116.301" x2="289" y2="64"/>
  <g>
    <ellipse style="fill: #ffffff" cx="287.934" cy="287.551" rx="79.9532" ry="24.4114"/>
    <ellipse style="fill: none; fill-opacity:0; stroke-width: 2; stroke: #000000" cx="287.934" cy="287.551" rx="79.9532" ry="24.4114"/>
    <text font-size="12.8" style="fill: #000000;text-anchor:middle;font-family:sans-serif;font-style:normal;font-weight:normal" x="287.934" y="291.451">
      <tspan x="287.934" y="291.451">requirement-rule</tspan>
    </text>
  </g>
  <g>
    <line style="fill: none; fill-opacity:0; stroke-width: 2; stroke: #000000" x1="153" y1="208" x2="238" y2="207.469"/>
    <polygon style="fill: #000000" points="238.031,212.469 248,207.406 237.969,202.469 "/>
    <polygon style="fill: none; fill-opacity:0; stroke-width: 2; stroke: #000000" points="238.031,212.469 248,207.406 237.969,202.469 "/>
  </g>
  <g>
    <rect style="fill: #ffffff" x="55.5" y="189" width="97.5" height="38"/>
    <rect style="fill: none; fill-opacity:0; stroke-width: 2; stroke: #000000" x="55.5" y="189" width="97.5" height="38"/>
    <text font-size="12.8" style="fill: #000000;text-anchor:middle;font-family:sans-serif;font-style:normal;font-weight:normal" x="104.25" y="211.9">
      <tspan x="104.25" y="211.9">Client</tspan>
    </text>
  </g>
  <g>
    <rect style="fill: #ffffff" x="431" y="187.6" width="99" height="38"/>
    <rect style="fill: none; fill-opacity:0; stroke-width: 2; stroke: #000000" x="431" y="187.6" width="99" height="38"/>
    <text font-size="12.8" style="fill: #000000;text-anchor:middle;font-family:sans-serif;font-style:normal;font-weight:normal" x="480.5" y="210.5">
      <tspan x="480.5" y="210.5">Itinerary</tspan>
    </text>
  </g>
  <text font-size="13.1965" style="fill: #000000;text-anchor:start;font-family:sans-serif;font-style:normal;font-weight:normal" x="260" y="210.4">
    <tspan x="260" y="210.4">requires</tspan>
  </text>
  <g>
    <line style="fill: none; fill-opacity:0; stroke-width: 2; stroke: #000000" x1="323" y1="207.4" x2="420" y2="206.681"/>
    <polygon style="fill: #000000" points="420.037,211.681 430,206.607 419.963,201.682 "/>
    <polygon style="fill: none; fill-opacity:0; stroke-width: 2; stroke: #000000" points="420.037,211.681 430,206.607 419.963,201.682 "/>
  </g>
  <line style="fill: none; fill-opacity:0; stroke-width: 2; stroke-dasharray: 4; stroke: #000000" x1="287.934" y1="263.139" x2="288" y2="212.4"/>
  <g>
    <ellipse style="fill: #ffffff" cx="287.434" cy="437.151" rx="76.2883" ry="23.2925"/>
    <ellipse style="fill: none; fill-opacity:0; stroke-width: 2; stroke: #000000" cx="287.434" cy="437.151" rx="76.2883" ry="23.2925"/>
    <text font-size="12.8" style="fill: #000000;text-anchor:middle;font-family:sans-serif;font-style:normal;font-weight:normal" x="287.434" y="441.051">
      <tspan x="287.434" y="441.051">preference-rule</tspan>
    </text>
  </g>
  <g>
    <line style="fill: none; fill-opacity:0; stroke-width: 2; stroke: #000000" x1="152.5" y1="357.6" x2="187.005" y2="358.662"/>
    <polygon style="fill: #000000" points="186.851,363.659 197,358.969 187.159,353.664 "/>
    <polygon style="fill: none; fill-opacity:0; stroke-width: 2; stroke: #000000" points="186.851,363.659 197,358.969 187.159,353.664 "/>
  </g>
  <g>
    <rect style="fill: #ffffff" x="55" y="338.6" width="97.5" height="38"/>
    <rect style="fill: none; fill-opacity:0; stroke-width: 2; stroke: #000000" x="55" y="338.6" width="97.5" height="38"/>
    <text font-size="12.8" style="fill: #000000;text-anchor:middle;font-family:sans-serif;font-style:normal;font-weight:normal" x="103.75" y="361.5">
      <tspan x="103.75" y="361.5">Client</tspan>
    </text>
  </g>
  <g>
    <rect style="fill: #ffffff" x="430.5" y="337.2" width="99" height="38"/>
    <rect style="fill: none; fill-opacity:0; stroke-width: 2; stroke: #000000" x="430.5" y="337.2" width="99" height="38"/>
    <text font-size="12.8" style="fill: #000000;text-anchor:middle;font-family:sans-serif;font-style:normal;font-weight:normal" x="480" y="360.1">
      <tspan x="480" y="360.1">Itinerary</tspan>
    </text>
  </g>
  <text font-size="13.1965" style="fill: #000000;text-anchor:start;font-family:sans-serif;font-style:normal;font-weight:normal" x="212.5" y="360">
    <tspan x="212.5" y="360">prefers-with-probability</tspan>
  </text>
  <g>
    <line style="fill: none; fill-opacity:0; stroke-width: 2; stroke: #000000" x1="377" y1="355" x2="419.503" y2="355.953"/>
    <polygon style="fill: #000000" points="419.391,360.952 429.5,356.178 419.615,350.955 "/>
    <polygon style="fill: none; fill-opacity:0; stroke-width: 2; stroke: #000000" points="419.391,360.952 429.5,356.178 419.615,350.955 "/>
  </g>
  <line style="fill: none; fill-opacity:0; stroke-width: 2; stroke-dasharray: 4; stroke: #000000" x1="287.434" y1="413.858" x2="287.5" y2="362"/>
  <text font-size="12.7998" style="fill: #000000;text-anchor:start;font-family:sans-serif;font-style:normal;font-weight:normal" x="164" y="51">
    <tspan x="164" y="51">1</tspan>
  </text>
  <text font-size="12.7998" style="fill: #000000;text-anchor:start;font-family:sans-serif;font-style:normal;font-weight:normal" x="392" y="199">
    <tspan x="392" y="199">1..*</tspan>
  </text>
  <text font-size="12.7998" style="fill: #000000;text-anchor:start;font-family:sans-serif;font-style:normal;font-weight:normal" x="164.5" y="200.5">
    <tspan x="164.5" y="200.5">1</tspan>
  </text>
  <text font-size="12.7998" style="fill: #000000;text-anchor:start;font-family:sans-serif;font-style:normal;font-weight:normal" x="164" y="351.1">
    <tspan x="164" y="351.1">1</tspan>
  </text>
  <text font-size="12.7998" style="fill: #000000;text-anchor:start;font-family:sans-serif;font-style:normal;font-weight:normal" x="404.5" y="49.7">
    <tspan x="404.5" y="49.7">1</tspan>
  </text>
  <text font-size="12.7998" style="fill: #000000;text-anchor:start;font-family:sans-serif;font-style:normal;font-weight:normal" x="407" y="346">
    <tspan x="407" y="346">1</tspan>
  </text>
</svg>
